# xmcd CD database file
#
# Track frame offsets:
#	225
#	14194
#	34381
#	48371
#	61325
#	76360
#	85298
#	98939
#	110637
#	124608
#	133946
#	146028
#	175552
#	187165
#
# Disc length: 2750 seconds
#
# Revision: 1
# Processed by: cddbd v1.4PL0 Copyright (c) Steve Scherf et al.
# Submitted via: CDex 1.50beta9
#
DISCID=ce0abb0e
DTITLE=Evergreen Band Rohrbach - around the World
DYEAR=1990
DGENRE=Jazz
TTITLE0=Five Foot Two, Eyes of Blue
TTITLE1=Bugle Boogie Blues
TTITLE2=Blue Moon
TTITLE3=Mr. Stanley
TTITLE4=Melodie of Love
TTITLE5=Ballerina
TTITLE6=The Girl from Ipanema
TTITLE7=The Millionaire
TTITLE8=Temprana Es La Noche
TTITLE9=Blue Skies
TTITLE10=s'Träumli
TTITLE11=Portrait Billy Vaughn
TTITLE12=I've got You under my Skin
TTITLE13=Just a Gigolo/Ain't got Nobody
EXTD=YEAR: 1990
EXTT0=
EXTT1=
EXTT2=
EXTT3=
EXTT4=
EXTT5=
EXTT6=
EXTT7=
EXTT8=
EXTT9=
EXTT10=
EXTT11=
EXTT12=
EXTT13=
PLAYORDER=
